<?xml version="1.0" encoding="iso-8859-1"?>
<!-- Generator: Adobe Illustrator 19.0.0, SVG Export Plug-In . SVG Version: 6.00 Build 0)  -->
<svg version="1.1" id="Capa_1" xmlns="http://www.w3.org/2000/svg" xmlns:xlink="http://www.w3.org/1999/xlink" x="0px" y="0px"
	 viewBox="0 0 512 512" style="enable-background:new 0 0 512 512;" xml:space="preserve">
<g>
	<g>
		<path d="M511.344,346.281l-0.011-0.051c-2.31-10.335-10.838-17.818-20.802-19.386v-37.205c0-33.446-23.254-61.554-54.441-69.027
			l8.294-7.953c4.535,2.662,9.641,3.993,14.748,3.993c7.76,0,15.521-3.073,21.276-9.221c10.152-10.846,10.424-27.982,0.596-39.123
			c-11.202-12.7-30.674-13.153-42.468-1.361c-9.496,9.496-11.045,23.969-4.66,35.095l-9.798,9.396l-14.587-68.957
			c-4.721-22.317-17.081-42.519-34.801-56.883c-17.721-14.364-40.042-22.275-62.854-22.275h-27.451
			c-4.125,0-7.468,3.344-7.468,7.468c0,4.125,3.344,7.468,7.468,7.468h27.451c19.397,0,38.379,6.727,53.448,18.942
			c15.068,12.215,25.579,29.393,29.594,48.371l8.53,40.324c-64.038-12.518-129.599-16.834-195.053-12.81
			c-1.005,0.06-2.018,0.128-3.024,0.199c-0.094,0.005-0.188,0.012-0.284,0.021c-32.316,2.115-64.698,6.318-96.433,12.501
			l8.512-40.236c4.014-18.978,14.523-36.156,29.593-48.371c15.069-12.215,34.051-18.942,53.448-18.942h48.366
			c4.125,0,7.468-3.344,7.468-7.468c0-4.125-3.344-7.468-7.468-7.468h-48.366c-22.811,0-45.133,7.91-62.854,22.276
			c-17.72,14.364-30.08,34.566-34.801,56.883l-14.587,68.957l-9.799-9.396c6.385-11.127,4.836-25.6-4.66-35.095
			c-11.355-11.355-29.832-11.356-41.19,0c-11.356,11.356-11.356,29.834,0,41.19c5.678,5.678,13.136,8.517,20.595,8.517
			c5.106,0,10.213-1.332,14.748-3.994l8.294,7.953c-31.188,7.472-54.441,35.58-54.441,69.027v1.977c0,4.125,3.344,7.468,7.468,7.468
			c4.125,0,7.468-3.344,7.468-7.468v-1.977c0-30.902,25.141-56.044,56.043-56.045v0.003c15.168,0,27.188,5.434,37.825,17.098
			c9.173,10.071,16.445,23.575,24.145,37.872c8.648,16.06,17.591,32.667,30.294,46.462c4.87,5.287,10.063,9.856,15.597,13.733
			c-55.039-2.769-109.94-9.645-163.902-20.513v-1.78c0-4.125-3.344-7.468-7.468-7.468c-4.125,0-7.468,3.344-7.468,7.468v0.375
			c-9.966,1.569-18.493,9.054-20.807,19.405l-0.014,0.061c-1.232,5.526-0.735,11.348,1.693,16.461
			c3.483,7.337,9.927,12.379,17.67,13.984c9.701,2.01,19.433,3.898,29.189,5.659v33.522c0,18.082,14.659,32.741,32.741,32.741
			h18.163c18.076,0,32.731-14.654,32.731-32.731V394.38c6.042,0.643,12.088,1.253,18.138,1.802
			c27.842,20.236,61.283,29.681,105.02,29.681c43.733,0,77.176-9.446,105.03-29.682c6.051-0.55,12.097-1.158,18.138-1.802v21.566
			c0,18.077,14.654,32.731,32.731,32.731h18.173c18.077,0,32.731-14.654,32.731-32.731v-33.532
			c9.756-1.763,19.486-3.649,29.186-5.659c7.747-1.605,14.196-6.653,17.677-13.998C512.091,357.638,512.583,351.809,511.344,346.281
			z M449.096,177.508c2.766-2.766,6.399-4.149,10.034-4.149c3.633,0,7.267,1.383,10.033,4.149c5.533,5.533,5.533,14.534,0,20.066
			c-5.533,5.532-14.533,5.533-20.066,0C443.564,192.042,443.564,183.041,449.096,177.508z M62.904,197.575
			c-5.532,5.532-14.533,5.533-20.066,0c-5.533-5.533-5.533-14.534,0-20.066c2.766-2.766,6.4-4.149,10.033-4.149
			c3.634,0,7.267,1.383,10.034,4.149C68.436,183.042,68.436,192.044,62.904,197.575z M419.554,233.595
			c30.901,0.003,56.04,25.144,56.04,56.045v38.61c-53.898,10.855-108.733,17.729-163.706,20.504
			c21.43-15.143,34.03-38.529,45.688-60.176c15.887-29.501,29.607-54.98,61.979-54.98V233.595z M195.7,324.911
			c-11.43-12.412-19.92-28.179-28.131-43.425c-8.146-15.129-15.842-29.418-26.256-40.851
			c-11.314-12.406-24.399-19.443-39.773-21.392l3.709-17.534c33.137-6.75,67.054-11.294,100.897-13.504
			c0.074-0.005,0.148-0.011,0.226-0.018c0.953-0.066,1.915-0.132,2.883-0.189c66.328-4.079,132.751,0.587,197.519,13.82
			l3.684,17.417c-34.825,4.357-50.678,33.746-66.034,62.261c-9.16,17.011-18.631,34.599-32.184,47.557
			c-15.059,14.397-32.931,21.103-56.244,21.103C230.724,350.155,211.563,342.133,195.7,324.911z M117.901,415.937
			c0,9.817-7.982,17.805-17.795,17.805H81.933c-9.812,0-17.795-7.987-17.795-17.805V385.01c17.85,2.983,35.78,5.533,53.762,7.682
			V415.937z M255.996,410.927c-27.354,0-50.23-3.912-69.967-12.108c23.31,1.409,46.652,2.135,69.971,2.135
			c23.315,0,46.654-0.726,69.962-2.135C306.22,407.014,283.345,410.927,255.996,410.927z M447.864,415.937
			c0,9.817-7.983,17.805-17.795,17.805h-18.173c-9.812,0-17.795-7.987-17.795-17.805v-23.245c17.982-2.15,35.913-4.699,53.762-7.682
			V415.937z M495.434,357.679c-1.494,2.313-3.795,3.894-6.478,4.45C412.481,377.98,334.102,386.017,256,386.017
			S99.52,377.98,23.045,362.13c-2.684-0.557-4.984-2.137-6.478-4.45c-1.51-2.339-2.007-5.123-1.402-7.83l0.081-0.36
			c1.061-4.75,5.356-8.021,10.087-8.021c0.691,0,1.391,0.07,2.092,0.215c75.038,15.543,151.943,23.425,228.576,23.425
			s153.538-7.882,228.577-23.425c5.498-1.139,10.962,2.362,12.178,7.808l0.078,0.347
			C497.441,352.556,496.944,355.34,495.434,357.679z"/>
	</g>
</g>
<g>
	<g>
		<path d="M99.919,251.517c-21.413,0-38.835,17.421-38.835,38.835c0,21.412,17.421,38.834,38.835,38.834
			c21.412,0,38.834-17.42,38.834-38.834S121.331,251.517,99.919,251.517z M99.919,314.248c-13.177,0-23.898-10.72-23.898-23.897
			s10.721-23.898,23.898-23.898c13.176,0,23.897,10.721,23.897,23.898C123.816,303.528,113.095,314.248,99.919,314.248z"/>
	</g>
</g>
<g>
	<g>
		<path d="M409.094,251.518c-21.413,0-38.835,17.421-38.835,38.835c0,21.412,17.421,38.834,38.835,38.834
			c21.413,0,38.835-17.421,38.835-38.834C447.928,268.939,430.507,251.518,409.094,251.518z M409.094,314.248
			c-13.177,0-23.898-10.721-23.898-23.897c0-13.177,10.721-23.898,23.898-23.898c13.177,0,23.898,10.721,23.898,23.898
			C432.992,303.529,422.271,314.248,409.094,314.248z"/>
	</g>
</g>
<g>
	<g>
		<path d="M248.383,203.759c-1.429-1.404-3.346-2.175-5.365-2.141c-28.477,0.493-57.204,2.65-85.381,6.411
			c-4.574,0.61-8.361,3.696-9.882,8.053c-1.522,4.357-0.481,9.127,2.713,12.448l0.117,0.122
			c12.601,13.126,21.536,29.719,30.176,45.765c12.191,22.64,21.957,39.467,36.659,49.817c3.627,2.552,7.855,3.849,12.109,3.849
			c3.315,0,6.645-0.788,9.715-2.381c7.016-3.641,11.375-10.811,11.375-18.713v-97.903
			C250.617,207.082,249.812,205.163,248.383,203.759z M232.361,312.444c-0.994,0.516-3.602,1.508-6.345-0.424
			c-12.027-8.466-20.893-23.861-32.106-44.685c-8.329-15.467-16.915-31.414-29.024-45.185c23.405-2.948,47.161-4.769,70.792-5.426
			v90.265h0.001C235.679,310.358,233.359,311.926,232.361,312.444z"/>
	</g>
</g>
<g>
	<g>
		<path d="M364.26,216.133c-1.521-4.357-5.307-7.443-9.878-8.055c-28.182-3.777-56.913-5.949-85.395-6.455
			c-2.016-0.028-3.938,0.736-5.366,2.14c-1.43,1.404-2.234,3.324-2.234,5.327v97.939c-0.001,7.893,4.35,15.058,11.355,18.701
			c3.074,1.598,6.41,2.388,9.732,2.388c4.246,0,8.469-1.291,12.093-3.833c14.742-10.343,24.525-27.195,36.739-49.876
			c8.64-16.044,17.575-32.635,30.24-45.827C364.74,225.258,365.78,220.487,364.26,216.133z M318.151,267.332
			c-11.229,20.854-20.11,36.269-32.165,44.727c-2.752,1.93-5.361,0.936-6.355,0.419c-0.996-0.518-3.31-2.084-3.31-5.449v-90.297
			c23.638,0.669,47.4,2.502,70.812,5.464C335.049,235.954,326.471,251.881,318.151,267.332z"/>
	</g>
</g>
<g>
</g>
<g>
</g>
<g>
</g>
<g>
</g>
<g>
</g>
<g>
</g>
<g>
</g>
<g>
</g>
<g>
</g>
<g>
</g>
<g>
</g>
<g>
</g>
<g>
</g>
<g>
</g>
<g>
</g>
</svg>
