<?xml version="1.0"?>
<svg xmlns="http://www.w3.org/2000/svg" height="512px" viewBox="0 0 64 64" width="512px" class=""><g><link xmlns="" type="text/css" id="dark-mode" rel="stylesheet" class="active-path" style=""/><style xmlns="" type="text/css" id="dark-mode-custom-style" class="active-path"/><path d="m39.036 32.245a5.042 5.042 0 0 1 -.728.071 4.966 4.966 0 0 1 -3.535-1.464 3.97 3.97 0 0 1 -2.068 1.095 3.986 3.986 0 0 1 -2.827 5.659 3.952 3.952 0 0 1 -.762 4.559z" data-original="#000000" class="active-path" fill="#C9CCD0"/><path d="m27.7 40.751a2 2 0 0 0 0-2.828l-1.414-1.414-5.656-5.657a2.049 2.049 0 0 0 -2.828 0 2 2 0 0 0 0 2.828l7.07 7.071a2 2 0 0 0 2.828 0z" data-original="#000000" class="active-path" fill="#C9CCD0"/><path d="m30.529 35.1a2 2 0 0 0 0-2.829l-7.071-7.071a2 2 0 1 0 -2.828 2.828l1.414 1.415 5.656 5.657a2.049 2.049 0 0 0 2.829 0z" data-original="#000000" class="active-path" fill="#C9CCD0"/><path d="m23.458 42.166-4.242-4.243-3.836 3.835a1 1 0 0 1 -.849.283 8.987 8.987 0 0 0 -10.089 10.659l6.7-6.7a1 1 0 0 1 .848-.283l4.95.707a1 1 0 0 1 .849.849l.707 4.949a1 1 0 0 1 -.283.849l-6.7 6.7a9 9 0 0 0 8.117-2.46 8.9 8.9 0 0 0 2.538-7.629 1 1 0 0 1 .283-.849l6.663-6.664a4.005 4.005 0 0 1 -5.656 0z" data-original="#000000" class="active-path" fill="#C9CCD0"/><path d="m37.6 22.367-5.658-5.658a2.055 2.055 0 0 0 -2.828 0 2 2 0 0 0 0 2.829l5.658 5.662z" data-original="#000000" class="active-path" fill="#C9CCD0"/><path d="m53.02 43.442a9.035 9.035 0 0 1 -2.582-5.369l-.793-7.15a7.029 7.029 0 0 0 -2.008-4.177l-3.672-3.672a3 3 0 0 0 -4.243 0l-4.95 4.949 1.415 1.415a3.074 3.074 0 0 0 4.242 0 1.986 1.986 0 0 1 1.414-.586 1.982 1.982 0 0 1 1.413.586l.707.706a3.006 3.006 0 0 1 0 4.243l-1.413 1.413a5.006 5.006 0 0 0 0 7.071 1 1 0 1 1 -1.414 1.414 7.009 7.009 0 0 1 0-9.9l1.415-1.414a1 1 0 0 0 0-1.415l-13.436 13.438 15.969 15.969 15.866.037.044-9.584z" data-original="#000000" class="active-path" fill="#C9CCD0"/><path d="m45.379 21.66 2.121 2.121 1.421-1.422a1 1 0 0 1 .85-.282 8.986 8.986 0 0 0 10.088-10.656l-6.7 6.7a.988.988 0 0 1 -.848.282l-4.953-.703a1 1 0 0 1 -.848-.848l-.71-4.952a1 1 0 0 1 .283-.848l6.7-6.7a9 9 0 0 0 -8.117 2.46 8.9 8.9 0 0 0 -2.538 7.629 1 1 0 0 1 -.283.849l-4.245 4.248 1.486 1.486a5.006 5.006 0 0 1 6.293.636z" data-original="#000000" class="active-path" fill="#C9CCD0"/><path d="m33.358 26.609-7.07-7.07a2.055 2.055 0 0 0 -2.829 0 2 2 0 0 0 0 2.829l7.071 7.071a2.055 2.055 0 0 0 2.829 0 2 2 0 0 1 0-2.829z" data-original="#000000" class="active-path" fill="#C9CCD0"/></g> </svg>
